<svg id="Capa_1" data-name="Capa 1" xmlns="http://www.w3.org/2000/svg" xmlns:xlink="http://www.w3.org/1999/xlink" viewBox="0 0 1410.07 1410.07"><defs><style>.cls-1,.cls-2{fill-rule:evenodd;}.cls-1{fill:url(#Degradado_sin_nombre_13);}.cls-2{fill:#fff;}</style><linearGradient id="Degradado_sin_nombre_13" x1="721.4" y1="93.18" x2="721.4" y2="1305.44" gradientUnits="userSpaceOnUse"><stop offset="0" stop-color="#00c13e"/><stop offset="1" stop-color="#008530"/></linearGradient></defs><title>whatsapp goodapp</title><path class="cls-1" d="M721.43,93.18c-336.92,0-610.89,271.87-610.89,606.16,0,132.57,43.19,255.43,116.35,355.4L150.6,1279.81l234.72-74.58a610.8,610.8,0,0,0,336.11,100.21c336.77,0,610.83-271.9,610.83-606.1S1058.2,93.18,721.43,93.18Z" transform="translate(0 -7.25)"/><path class="cls-2" d="M1410.07,694.15c0,379.29-309.9,686.84-692.19,686.84a693,693,0,0,1-334.61-85.46L0,1417.32l124.93-368.5A679.66,679.66,0,0,1,25.64,694.15c0-379.37,309.9-686.9,692.24-686.9s692.19,307.53,692.19,686.9ZM717.88,116.65c-321,0-582,259-582,577.5a571.53,571.53,0,0,0,110.84,338.6l-72.67,214.42,223.61-71.05a582,582,0,0,0,320.22,95.48c320.85,0,581.95-259,581.95-577.45s-261.1-577.5-581.95-577.5Zm349.54,735.7c-4.28-7-15.6-11.24-32.5-19.66s-100.45-49.18-116-54.76-26.93-8.42-38.17,8.4-43.85,54.78-53.78,66-19.74,12.64-36.72,4.21S718.57,830.32,653.78,773c-50.41-44.7-84.46-99.77-94.41-116.61s-1-25.93,7.42-34.33c7.66-7.58,17-19.66,25.48-29.45s11.32-16.93,17-28.17,2.84-21-1.45-29.45-38.17-91.26-52.33-125-28.22-32.39-38.17-32.39-28.18,2.94-28.18,2.94-34,4.21-49.55,21.05S380.21,459.22,380.21,542,441,704.94,449.44,716.1,566.79,902.92,739.31,970.33,911.83,1015.24,943,1012.4s100.37-40.7,114.53-80,14.16-73,9.94-80Zm0,0" transform="translate(0 -7.25)"/></svg>