<svg id="Capa_1" data-name="Capa 1" xmlns="http://www.w3.org/2000/svg" xmlns:xlink="http://www.w3.org/1999/xlink" viewBox="0 0 154.93 29.05"><defs><style>.cls-1{fill:#25d366;}.cls-2,.cls-4{fill:#fff;}.cls-3,.cls-4{fill-rule:evenodd;}.cls-3{fill:url(#Degradado_sin_nombre_13);}</style><linearGradient id="Degradado_sin_nombre_13" x1="19.45" y1="6.17" x2="19.45" y2="23.86" gradientUnits="userSpaceOnUse"><stop offset="0" stop-color="#00c13e"/><stop offset="1" stop-color="#008530"/></linearGradient></defs><title>boton de whatsapp</title><rect class="cls-1" width="154.93" height="29.05" rx="14.52"/><path class="cls-2" d="M36.58,14a.6.6,0,0,1-.61.65.65.65,0,0,1,0-1.29A.59.59,0,0,1,36.58,14Zm-1.11,6.51.14-5h.71l.16,5Z" transform="translate(-1.15 -0.68)"/><path class="cls-2" d="M39.1,16.19l-.73,2.21h-.94l2.39-7h1.09l2.4,7h-1l-.75-2.21Zm2.3-.71-.69-2c-.15-.46-.26-.87-.36-1.28h0c-.11.42-.22.84-.36,1.27l-.69,2Z" transform="translate(-1.15 -0.68)"/><path class="cls-2" d="M44.12,17.46a2.4,2.4,0,0,0,1.21.37c.67,0,1-.33,1-.75s-.26-.68-.93-.93c-.91-.32-1.34-.82-1.34-1.43a1.56,1.56,0,0,1,1.74-1.48,2.48,2.48,0,0,1,1.24.32l-.23.66a2,2,0,0,0-1-.29c-.54,0-.84.31-.84.69s.3.6,1,.85c.87.34,1.32.78,1.32,1.53s-.69,1.51-1.89,1.51a2.82,2.82,0,0,1-1.41-.35Z" transform="translate(-1.15 -0.68)"/><path class="cls-2" d="M48.89,16.05a1.61,1.61,0,0,0,1.73,1.75,3.44,3.44,0,0,0,1.4-.26l.15.65a4,4,0,0,1-1.68.32A2.34,2.34,0,0,1,48,16a2.45,2.45,0,0,1,2.36-2.72,2.13,2.13,0,0,1,2.08,2.38,3.73,3.73,0,0,1,0,.43Zm2.69-.66a1.31,1.31,0,0,0-1.27-1.49,1.52,1.52,0,0,0-1.41,1.49Z" transform="translate(-1.15 -0.68)"/><path class="cls-2" d="M53.48,17.46a2.37,2.37,0,0,0,1.21.37c.67,0,1-.33,1-.75s-.26-.68-.94-.93c-.91-.32-1.33-.82-1.33-1.43a1.55,1.55,0,0,1,1.74-1.48,2.48,2.48,0,0,1,1.24.32l-.23.66a2,2,0,0,0-1-.29c-.55,0-.85.31-.85.69s.3.6,1,.85c.88.34,1.32.78,1.32,1.53s-.68,1.51-1.88,1.51a2.86,2.86,0,0,1-1.42-.35Z" transform="translate(-1.15 -0.68)"/><path class="cls-2" d="M62.3,15.84a2.47,2.47,0,0,1-2.51,2.68,2.4,2.4,0,0,1-2.42-2.6,2.46,2.46,0,0,1,2.5-2.68A2.39,2.39,0,0,1,62.3,15.84Zm-4,.05c0,1.11.63,1.94,1.53,1.94s1.53-.82,1.53-2c0-.85-.43-1.94-1.51-1.94S58.3,14.93,58.3,15.89Z" transform="translate(-1.15 -0.68)"/><path class="cls-2" d="M63.46,14.93c0-.59,0-1.1,0-1.57h.8l0,1h0a1.52,1.52,0,0,1,1.4-1.11,1,1,0,0,1,.26,0v.87a1.42,1.42,0,0,0-.31,0,1.28,1.28,0,0,0-1.23,1.18,2.61,2.61,0,0,0,0,.42V18.4h-.91Z" transform="translate(-1.15 -0.68)"/><path class="cls-2" d="M69.61,18.4l-.07-.63h0a1.92,1.92,0,0,1-1.55.75,1.44,1.44,0,0,1-1.54-1.45c0-1.22,1.08-1.89,3-1.88v-.1a1,1,0,0,0-1.14-1.17A2.55,2.55,0,0,0,67,14.3l-.2-.61a3.11,3.11,0,0,1,1.65-.45c1.55,0,1.92,1.06,1.92,2.07v1.88a7.36,7.36,0,0,0,.08,1.21Zm-.14-2.57c-1,0-2.13.15-2.13,1.13a.81.81,0,0,0,.86.88A1.25,1.25,0,0,0,69.42,17a1,1,0,0,0,0-.3Z" transform="translate(-1.15 -0.68)"/><path class="cls-2" d="M72.91,11.91v1.45h1.31v.7H72.91v2.72c0,.62.17,1,.69,1a1.74,1.74,0,0,0,.53-.07l0,.69a2.1,2.1,0,0,1-.81.13,1.26,1.26,0,0,1-1-.39A1.87,1.87,0,0,1,72,16.81V14.06h-.78v-.7H72V12.15Z" transform="translate(-1.15 -0.68)"/><path class="cls-2" d="M75.7,16.05a1.61,1.61,0,0,0,1.73,1.75,3.44,3.44,0,0,0,1.4-.26l.16.65a4,4,0,0,1-1.68.32A2.34,2.34,0,0,1,74.83,16a2.45,2.45,0,0,1,2.36-2.72,2.14,2.14,0,0,1,2.09,2.38,3.73,3.73,0,0,1,0,.43Zm2.69-.66a1.31,1.31,0,0,0-1.27-1.49,1.52,1.52,0,0,0-1.41,1.49Z" transform="translate(-1.15 -0.68)"/><path class="cls-2" d="M82.63,15c0-.64,0-1.16,0-1.64h.83l0,.86h0a2,2,0,0,1,1.79-1,2.29,2.29,0,0,1,2.14,2.57c0,1.81-1.1,2.71-2.29,2.71a1.79,1.79,0,0,1-1.56-.79h0v2.74h-.9Zm.9,1.35a1.38,1.38,0,0,0,0,.37A1.4,1.4,0,0,0,85,17.8c1,0,1.53-.79,1.53-2,0-1-.53-1.88-1.5-1.88a1.46,1.46,0,0,0-1.38,1.14,1.51,1.51,0,0,0-.07.37Z" transform="translate(-1.15 -0.68)"/><path class="cls-2" d="M93.13,15.84a2.48,2.48,0,0,1-2.52,2.68,2.4,2.4,0,0,1-2.41-2.6,2.46,2.46,0,0,1,2.5-2.68A2.39,2.39,0,0,1,93.13,15.84Zm-4,.05c0,1.11.64,1.94,1.54,1.94s1.53-.82,1.53-2c0-.85-.43-1.94-1.51-1.94S89.12,14.93,89.12,15.89Z" transform="translate(-1.15 -0.68)"/><path class="cls-2" d="M94.29,14.93c0-.59,0-1.1-.05-1.57h.81l0,1h0a1.52,1.52,0,0,1,1.4-1.11,1.09,1.09,0,0,1,.26,0v.87a1.51,1.51,0,0,0-.32,0,1.3,1.3,0,0,0-1.23,1.18,2.61,2.61,0,0,0,0,.42V18.4h-.9Z" transform="translate(-1.15 -0.68)"/><path class="cls-2" d="M100.71,18.4l-1.78-7h1l.83,3.55c.21.88.4,1.75.52,2.43h0c.12-.7.33-1.53.57-2.44l.94-3.54h1l.86,3.56c.19.84.38,1.67.49,2.41h0c.14-.77.34-1.55.56-2.43l.93-3.54h.92l-2,7h-.94l-.89-3.66a19.7,19.7,0,0,1-.46-2.29h0a22.78,22.78,0,0,1-.54,2.29l-1,3.66Z" transform="translate(-1.15 -0.68)"/><path class="cls-2" d="M108.3,11h.92v3.15h0a1.79,1.79,0,0,1,.66-.65,1.93,1.93,0,0,1,.93-.26c.68,0,1.77.42,1.77,2.16v3h-.92V15.5c0-.81-.3-1.5-1.17-1.5a1.33,1.33,0,0,0-1.23.92,1.17,1.17,0,0,0-.06.44v3h-.92Z" transform="translate(-1.15 -0.68)"/><path class="cls-2" d="M116.88,18.4l-.07-.63h0a1.89,1.89,0,0,1-1.54.75,1.44,1.44,0,0,1-1.55-1.45c0-1.22,1.09-1.89,3-1.88v-.1a1,1,0,0,0-1.15-1.17,2.48,2.48,0,0,0-1.31.38l-.21-.61a3.15,3.15,0,0,1,1.66-.45c1.54,0,1.91,1.06,1.91,2.07v1.88a6.35,6.35,0,0,0,.09,1.21Zm-.13-2.57c-1,0-2.14.15-2.14,1.13a.82.82,0,0,0,.87.88A1.27,1.27,0,0,0,116.7,17a1,1,0,0,0,0-.3Z" transform="translate(-1.15 -0.68)"/><path class="cls-2" d="M120.18,11.91v1.45h1.31v.7h-1.31v2.72c0,.62.18,1,.69,1a1.69,1.69,0,0,0,.53-.07l0,.69a2.1,2.1,0,0,1-.81.13,1.27,1.27,0,0,1-1-.39,1.87,1.87,0,0,1-.36-1.31V14.06h-.78v-.7h.78V12.15Z" transform="translate(-1.15 -0.68)"/><path class="cls-2" d="M122.4,17.46a2.37,2.37,0,0,0,1.21.37c.67,0,1-.33,1-.75s-.26-.68-.94-.93c-.9-.32-1.33-.82-1.33-1.43a1.55,1.55,0,0,1,1.74-1.48,2.48,2.48,0,0,1,1.24.32l-.23.66a2,2,0,0,0-1-.29c-.54,0-.85.31-.85.69s.31.6,1,.85c.88.34,1.33.78,1.33,1.53s-.69,1.51-1.89,1.51a2.89,2.89,0,0,1-1.42-.35Z" transform="translate(-1.15 -0.68)"/><path class="cls-2" d="M129.45,18.4l-.07-.63h0a1.89,1.89,0,0,1-1.54.75,1.44,1.44,0,0,1-1.54-1.45c0-1.22,1.08-1.89,3-1.88v-.1a1,1,0,0,0-1.14-1.17,2.55,2.55,0,0,0-1.32.38l-.21-.61a3.17,3.17,0,0,1,1.66-.45c1.54,0,1.92,1.06,1.92,2.07v1.88a7.36,7.36,0,0,0,.08,1.21Zm-.14-2.57c-1,0-2.13.15-2.13,1.13a.81.81,0,0,0,.86.88,1.25,1.25,0,0,0,1.22-.84,1,1,0,0,0,.05-.3Z" transform="translate(-1.15 -0.68)"/><path class="cls-2" d="M131.68,15c0-.64,0-1.16,0-1.64h.82l0,.86h0a2,2,0,0,1,1.79-1,2.29,2.29,0,0,1,2.14,2.57c0,1.81-1.11,2.71-2.3,2.71a1.77,1.77,0,0,1-1.55-.79h0v2.74h-.91Zm.91,1.35a2,2,0,0,0,0,.37A1.42,1.42,0,0,0,134,17.8c1,0,1.53-.79,1.53-2,0-1-.53-1.88-1.5-1.88a1.47,1.47,0,0,0-1.39,1.14,1.51,1.51,0,0,0-.06.37Z" transform="translate(-1.15 -0.68)"/><path class="cls-2" d="M137.62,15c0-.64,0-1.16-.05-1.64h.83l0,.86h0a2,2,0,0,1,1.79-1,2.29,2.29,0,0,1,2.14,2.57c0,1.81-1.11,2.71-2.29,2.71a1.77,1.77,0,0,1-1.56-.79h0v2.74h-.9Zm.9,1.35a2,2,0,0,0,0,.37,1.42,1.42,0,0,0,1.38,1.08c1,0,1.53-.79,1.53-2,0-1-.53-1.88-1.5-1.88a1.48,1.48,0,0,0-1.39,1.14,1.51,1.51,0,0,0-.06.37Z" transform="translate(-1.15 -0.68)"/><path class="cls-2" d="M143.37,17.87a.62.62,0,0,1,.62-.65.65.65,0,0,1,0,1.3A.61.61,0,0,1,143.37,17.87Zm.26-1.49-.14-5h1l-.15,5Z" transform="translate(-1.15 -0.68)"/><path class="cls-3" d="M19.45,6.17A8.89,8.89,0,0,0,10.53,15a8.73,8.73,0,0,0,1.7,5.18l-1.11,3.29,3.42-1.09A8.93,8.93,0,0,0,28.36,15a8.89,8.89,0,0,0-8.91-8.85Z" transform="translate(-1.15 -0.68)"/><path class="cls-4" d="M29.5,14.94A10.06,10.06,0,0,1,19.4,25a10.17,10.17,0,0,1-4.89-1.24L8.92,25.49l1.82-5.37a9.94,9.94,0,0,1-1.45-5.18,10.11,10.11,0,0,1,20.21,0ZM19.4,6.51a8.47,8.47,0,0,0-8.5,8.43,8.33,8.33,0,0,0,1.62,4.94L11.46,23l3.26-1A8.45,8.45,0,1,0,19.4,6.51Zm5.1,10.74A1.33,1.33,0,0,0,24,17c-.25-.12-1.46-.72-1.69-.8s-.39-.12-.56.13-.64.79-.78,1-.29.18-.54.06a6.66,6.66,0,0,1-2-1.22,7.67,7.67,0,0,1-1.38-1.7c-.14-.25,0-.38.11-.5s.25-.29.37-.43a1.46,1.46,0,0,0,.25-.41.46.46,0,0,0,0-.43c-.06-.12-.56-1.33-.76-1.83s-.42-.47-.56-.47a3.9,3.9,0,0,0-.41,0,1.5,1.5,0,0,0-.73.31,2.78,2.78,0,0,0-.86,2.05,4.77,4.77,0,0,0,1,2.54A10,10,0,0,0,19.71,19c2.52,1,2.52.66,3,.61a2.51,2.51,0,0,0,1.67-1.16,2.05,2.05,0,0,0,.15-1.17Zm0,0" transform="translate(-1.15 -0.68)"/></svg>